<?xml version="1.0" encoding="utf-8"?>
<!-- Generator: Adobe Illustrator 19.2.1, SVG Export Plug-In . SVG Version: 6.00 Build 0)  -->
<svg version="1.1" id="Layer_1" xmlns="http://www.w3.org/2000/svg" xmlns:xlink="http://www.w3.org/1999/xlink" x="0px" y="0px"
	 viewBox="0 0 275.9 51.7" style="enable-background:new 0 0 275.9 51.7;" xml:space="preserve">
<style type="text/css">
	.st0{fill:#0093D0;}
	.st1{fill:#FFFFFF;}
</style>
<g>
	<path d="M157.6,27.4c-0.6-3.3-1.9-6.1-5.9-6.1c-2.1,0-3.9,1-3.9,3.2c0,1.5,0.6,2.3,1.8,3c0.6,0.3,1.3,0.6,2.1,0.9
		c0.8,0.3,1.5,0.6,2.4,0.8c2.6,0.8,6.4,2.8,6.4,7.6c0,4.8-4.4,7.1-8.6,7.1c-2.8,0-5-0.5-7.7-1.4V35h1.4c0.3,3.6,1.8,7.9,6.4,7.9
		c2.4,0,5.1-1.4,5.1-4.1c0-2.4-2.1-3.5-4-4.3c-3.6-1.5-8.6-2.5-8.6-7.5c0-4.6,3.5-7,7.5-7c2.4,0,4.5,0.7,6.8,1.5v6.1H157.6
		L157.6,27.4z M48.6,34.5v-2.9c-4.3,0.1-8.5,1.4-8.5,5.9c0,2.7,1.7,3.8,3.5,3.8c1.5,0,2.6-0.8,3.1-1.3
		C48.4,38.4,48.5,37.3,48.6,34.5L48.6,34.5z M37.1,7.7l0.5,9.3h-1.4c-1.1-5.3-5.3-10.4-11.7-10.4l-0.3,0c-7.4,0-13,7.4-13,18.9
		c0,6,2.7,16.5,13.9,16.5c4.3,0,7.8-1.7,9.9-4.1c0.2-3.2,2.7-5,6.1-6.1c2.4-0.7,5.1-1.2,7.5-1.2v-4.6c-0.1-1.6-0.2-4.2-3.9-4.2
		c-2.5,0-4.5,1.5-4.5,2.3c0,0.7,1.1,1.4,1.1,2.6c0,1.2-1,2.4-2.5,2.4c-1.5,0-2.4-1.2-2.4-2.6c0-2.7,3.5-6,9-6c2.6,0,5.3,1.1,6.7,2.4
		c1.5,1.6,1.5,3.4,1.5,5.5v10.6c0,1.9,0,3.2,1.3,3.2c0.3,0,0.3,0,0.4,0c0.1,0,0.2-0.1,0.4-0.2l0,1.1c-0.6,0.4-1,0.6-2.5,0.6
		c-1.2,0-2.3-0.4-3.2-1c-1.3-1-1.4-2.3-1.5-3.4c-1.2,2.4-3.6,4.5-7.3,4.5c-3,0-5.4-1.5-6-4.1c-2.1,2.3-5.9,4.4-12.4,4.4
		c-11.3,0-18.3-8.4-18.3-19.3c0-8.5,6.1-19.3,19.2-19.3c8.2,0.1,9.7,2.4,11,2.4c0.9,0,1.3-0.9,2.1-0.9C36.8,7.1,37.1,7.2,37.1,7.7
		L37.1,7.7z M93.8,26.6c0,0.1,0,0.1,0.1,0.4c-6.1,3-9.8,5.5-14.3,8.6c0.9,3.3,2.9,5.8,6.7,5.8c2.7,0,6.2-2.7,7.3-4.7l0.1-0.1
		c0.2,0,0.7,0.1,0.7,0.2c0,0.5-1,2.2-1.4,2.7c-2.2,2.9-4.8,4.3-8.8,4.3C78,43.8,74,38.2,74,32C74,25.6,79,20.5,85,20.5
		c3.4,0,6.6,1.5,8.2,4.7C93.5,25.7,93.7,26.1,93.8,26.6L93.8,26.6z M79.2,34.1c2.4-2,5.9-4.7,10-7c-0.2-3.1-1.5-5.2-4.4-5.2
		c-2.8,0-4.4,2.3-5.3,5.7c-0.1,0.3-0.2,1-0.3,2c-0.1,0.6-0.1,1.4-0.1,2C79,32.4,79.1,33.3,79.2,34.1L79.2,34.1z M120.4,42.3h3.1v1.2
		h-11.6v-1.2h3.3V23.2c0,0,3.7-1.1,5.2-1.2L120.4,42.3L120.4,42.3z M65.2,26.6c0.3-0.8,0.6-1.6,1.4-2.8c1.3-1.8,3-3,5.1-3
		c2,0,3.6,1.3,3.6,3.2c0,1.6-1.2,2.8-2.8,2.8c-1.5,0-2.4-0.9-2.6-2.4c-0.1-1.2-0.1-1.4-0.7-1.4c-0.1,0-1.2,0.1-2.3,2.8
		c-1.5,3.7-1.6,6.4-1.6,10v6.6h3.1v1.1H56.7v-1.1H60V23.3l-3.1,0.3l0-1.4c0,0,3.6-0.8,8.4-1.2L65.2,26.6L65.2,26.6z M133.5,26.1
		c0.3-0.8,0.6-1.7,1.4-2.8c1.3-1.8,3-3,5.1-3c2,0,3.6,1.3,3.6,3.3c0,1.6-1.2,2.9-2.9,2.9c-1.5,0-2.4-0.9-2.6-2.5
		c-0.1-1.2-0.1-1.4-0.7-1.4c-0.1,0-1.2,0.1-2.3,2.8c-1.5,3.7-1.6,6.4-1.7,10.1v7h3.1v1.2H125v-1.2h3.3V22.7l-3.1,0.3l0-1.5
		c0,0,3.4-0.8,8.4-1.3L133.5,26.1L133.5,26.1z M103.4,42.3h4.7v1.2H92.5v-1.2h4.7V5.6h-4.7V4.4h26.5l0.7,8.7h-1.3
		c-0.6-3.3-1.9-5.1-3.1-6.1c-1.7-1.4-4-1.5-8-1.5h-3.9v15.6c24.2-8.9,45.3-9.7,59.5-8.5c0.5-0.4,1.2-0.9,1.6-1.4
		c2.1-2.6,2.4-4.1,2.7-5.2h0.8v7.2c9,1.1,14.1,2.8,14.1,2.8v2.6c-4.9-1.1-9.6-1.9-14.1-2.5v22.2c0,1.7-0.1,4,2.7,4
		c2.8,0,3.2-2.3,3.3-3.1h1.2c-0.3,1.3-1.1,4.9-6.2,4.9c-2.7,0-4.9-1.1-5.7-3.3c-0.4-1-0.4-2.3-0.4-5.1V15.5c-24-2.2-43.6,2.3-59.5,8
		V42.3L103.4,42.3z"/>
</g>
<path class="st0" d="M254.8,45.6c7.8-4.3,12.5-11.1,14.9-18.6c2.5-7.8,2.1-17-0.8-22.7c-4.4,2.2-8.9,3.4-14.1,3.4
	c-5.2,0-9.6-1.1-14.1-3.4c-2.9,5.7-3.3,14.9-0.8,22.7C242.4,34.5,247.1,41.3,254.8,45.6L254.8,45.6z"/>
<polygon class="st0" points="221.5,45.2 221.5,34 232.7,34 232.7,16 221.5,16 221.5,4.8 203.6,4.8 203.6,16 192.3,16 192.3,34 
	203.6,34 203.6,45.2 "/>
<path class="st1" d="M212.5,25"/>
<path class="st1" d="M212.5,25"/>
<path class="st1" d="M202.2,21.1l7.4,0.7c1.4,0.2,1.6,1.5,1.2,2.4l-5.1,9.6l0,0c-2.6-2-4.2-5.2-4.2-8.7
	C201.4,23.6,201.7,22.3,202.2,21.1L202.2,21.1z"/>
<path class="st1" d="M212.6,15.3c-1.3,0-1.7,1.5-1.1,2.3c0.5,0.7,0.6,0.9,0.6,1.5c0,0.5-0.5,1.2-1.6,1.2h-7.9
	c1.8-3.8,5.6-6.4,10.1-6.4"/>
<path class="st0" d="M203.3,22.7l5.6,0.5c0.4,0,0.4,0.2,0.3,0.4l-3.9,7.5c-1.4-1.7-2.3-3.8-2.3-6.2C203,24.2,203.1,23.5,203.3,22.7z
	"/>
<path class="st0" d="M209.9,15.8c-0.6,0.9-0.1,2.2,0.4,2.7c0.1,0.1,0,0.2,0,0.2h-5C206.5,17.4,208.1,16.4,209.9,15.8z"/>
<path class="st1" d="M212.5,25"/>
<path class="st1" d="M212.5,25"/>
<path class="st1" d="M222.9,21.1l-7.4,0.7c-1.4,0.2-1.6,1.5-1.2,2.4l5.1,9.6l0,0c2.6-2,4.2-5.2,4.2-8.7
	C223.6,23.6,223.4,22.3,222.9,21.1L222.9,21.1z"/>
<path class="st1" d="M212.5,15.3c1.3,0,1.7,1.5,1.1,2.3c-0.5,0.7-0.6,0.9-0.6,1.5c0,0.5,0.5,1.2,1.6,1.2h7.9
	c-1.8-3.8-5.6-6.4-10-6.4"/>
<path class="st0" d="M221.8,22.7l-5.6,0.5c-0.4,0-0.4,0.2-0.3,0.4l3.9,7.5c1.4-1.7,2.3-3.8,2.3-6.2C222.1,24.2,222,23.5,221.8,22.7z
	"/>
<path class="st0" d="M215.2,15.8c0.6,0.9,0.1,2.2-0.4,2.7c-0.1,0.1,0,0.2,0,0.2h5C218.6,17.4,217,16.4,215.2,15.8z"/>
<path class="st1" d="M212.5,36.1c2.3,0,4.3-0.7,6.1-1.8v0l-5.4-8.1c-0.4-0.5-1-0.6-1.4,0l-5.4,8.1l0,0
	C208.2,35.4,210.3,36.1,212.5,36.1"/>
<path class="st1" d="M254.8,42.2c6.4-4,9.8-9.6,12-16c1.9-5.7,2.4-12.3,0.3-17.5c-3.2,1.1-5.1,1.4-6.8,1.7c-1.6,0.3-3.1,0.4-5.4,0.4
	h0c-2.4,0-3.8-0.2-5.4-0.4c-1.7-0.3-3.6-0.6-6.8-1.7c-2.1,5.2-1.7,11.8,0.3,17.5C245.1,32.5,248.5,38.2,254.8,42.2L254.8,42.2z"/>
<path class="st0" d="M254.8,40.6c4.3-2.7,9.2-8.9,11.2-17c1-4.3,1.3-9.1,0-13c-1.9,0.5-3.7,0.9-5.6,1.2c-1.9,0.2-3.7,0.4-5.5,0.4h0
	c-1.8,0-3.7-0.2-5.5-0.4c-1.9-0.3-3.7-0.7-5.6-1.2c-1.4,3.8-1.1,8.7,0,13C245.6,31.7,250.5,37.9,254.8,40.6L254.8,40.6z"/>
<path class="st1" d="M250.4,15.2c-1.5,0.8-2,2.5-1.3,4c0.6,1.2,1.7,2.1,3,2.5c0.7,0.2,1.3,0.2,2,0.3c0.8,0,1.6,0.1,2.4,0.3
	c0.2,0,0.4,0.1,0.4,0.3c0.2,0.4,0,0.8-0.4,1c0,0.7-0.1,2.1-0.1,2.1s3.4-0.3,2.8-3.4c-0.1-0.7-0.7-1.5-1.4-1.8
	c-1.7-0.9-3.6-0.5-5.3-1.1c-0.6-0.2-1.4-0.5-1.6-1.1c-0.1-0.3,0-0.8,0.3-0.9c0.4-0.1,0.9,0.2,1.6,0.4c0.4,0.1,0.8,0.1,1.1,0
	c0.1,0,0.3-0.1,0.4-0.2c0-0.1-0.2-0.1-0.3-0.2c-0.2-0.1-0.4-0.1-0.6-0.2c-0.4-0.1-0.7-0.3-1.1-0.5c0.3-0.1,0.9-0.1,1.2,0
	c0.3,0,1.1,0,1.3,0c0.1,0,0.2-0.1,0.1-0.2c-0.1-0.2-0.3-0.2-0.4-0.4c-0.2-0.3-0.4-0.7-0.8-0.8C252.8,14.7,251.5,14.6,250.4,15.2z"/>
<path class="st1" d="M256.1,26l0-3.6c0,0-0.5-0.1-1.1-0.1c-0.8-0.1-1.2,0-1.2,0v0.3c0,0-0.4,0.2-0.5,0.3c0,0-0.1,0.2-0.1,0.3
	c0.3,0.9,0.8,1.7,0.9,2.7C254.8,25.9,255.3,25.9,256.1,26z"/>
<path class="st1" d="M251.8,25.5c-0.2,1.4,0.8,2.1,1.8,2.4c0.8,0.2,1.6,0.2,2.4,0.3c0.1,0,0.3,0,0.5,0.1c0.1,0.1,0.2,0.2,0.3,0.2
	c0,0.1,0,0.2-0.1,0.3c-0.1,0.1-0.3,0.2-0.3,0.2l0,1.7c0,0,0.7,0,1.2-0.4c0.5-0.3,0.8-0.7,1-1.2c0.1-0.6,0-1.1-0.4-1.7
	c-0.3-0.4-0.7-0.6-1.2-0.8c-1-0.3-2.1-0.3-3.1-0.4c-0.2,0-0.3-0.1-0.3-0.3c0-0.3,0.2-0.4,0.2-0.4s-0.1-0.4-0.3-0.8
	c-0.1-0.3-0.3-0.7-0.4-0.9C252.4,24.1,251.9,24.8,251.8,25.5z"/>
<path class="st1" d="M256,28.6l0,3l-0.8-0.3l-0.7-0.3l0-2.5C255.1,28.5,255.4,28.5,256,28.6z"/>
<path class="st1" d="M252.6,30.2c-0.4,1,0.1,1.9,0.9,2.3c0.4,0.2,1,0.4,1.5,0.6c0.5,0.2,1.3,0.7,1.3,0.9c0,0.2-0.1,0.3-0.1,0.3
	l0,1.2c0,0,0.5-0.1,0.9-0.4c0.3-0.3,0.6-0.6,0.6-1.2c0-0.6-0.3-1.1-1.2-1.7c-0.7-0.4-1.6-0.8-2.2-1c-0.1,0-0.2-0.2-0.1-0.3
	c0-0.1,0.1-0.2,0.1-0.2l0-1.4c0,0-0.5,0.1-0.8,0.2C253.1,29.7,252.8,29.9,252.6,30.2z"/>
<path class="st1" d="M255.9,34.2c0-0.1,0-0.1-0.1-0.2c-0.2-0.2-0.5-0.4-0.6-0.4c-0.2-0.1-0.7-0.3-0.7-0.3s0,3.1,0.1,4.7
	c0,0.4,0.2,0.5,0.6,0.5c0.4,0,0.5-0.2,0.6-0.4C255.8,37.6,255.8,35.4,255.9,34.2z"/>
<path class="st1" d="M256.2,14.4c0.2,0.1,0.2,0.1,0.2,0.3c0.1,0.5,0,1.3,0.1,1.6c0,0.1,0.2,0.1,0.2,0.1c0.7-0.4,1.1-1,1.8-1.3
	c0.3-0.1,1.2,0.3,1,1c-0.1,0.3-0.2,0.4-0.4,0.6c-0.4,0.4-1,0.8-1.5,1.4c-0.3,0.4-0.7,0.6-1,1c-0.1,0.1-0.2,0.3-0.2,0.3
	c-1-0.2-1.9-0.2-2.7-0.3l0-1.1c0,0,0.8-0.1,0.9-0.5c0,0,0-0.2-0.1-0.2c-0.1-0.1-0.4-0.2-0.4-0.2c0.8,0.1,1.2,0.2,2,0.6
	c0-0.1,0-0.3,0-0.3c-0.1-0.1-0.2-0.2-0.4-0.2c-0.5-0.1-1.7-0.3-1.7-0.3s0.6,0,1-0.1c0.2,0,0.4-0.1,0.5-0.2c0.1-0.1,0-0.3-0.2-0.5
	c-0.1-0.1-0.2-0.2-0.3-0.4c-0.1-0.2-0.3-0.4-0.5-0.6c-0.2-0.2-0.6-0.4-0.6-0.4s-0.1-0.6,0-0.8c0.1-0.2,0.3-0.3,0.4-0.2
	C254.9,14,255.5,14.3,256.2,14.4z"/>
<path class="st0" d="M253.8,15.6c-0.1,0.1-0.2,0.2-0.4,0.2c-0.3,0.1-0.3-0.2-0.5-0.4c-0.1-0.1-0.3,0-0.4-0.2c0.5,0,1.1,0,1.4,0.3
	C253.9,15.5,253.8,15.6,253.8,15.6z"/>
<path class="st0" d="M212.4,28c0.1-0.1,0.2-0.1,0.3,0l3.7,5.7c-1.2,0.5-2.5,0.8-3.9,0.8c-1.4,0-2.7-0.3-3.9-0.8L212.4,28
	c0.1-0.1,0.2-0.1,0.3,0"/>
<path class="st1" d="M253.8,35.4c-0.2,0.2-0.5,0.6-0.5,1.2c0,0.6,0.1,0.7,0.2,1c0.1,0.2,0.4,0.2,0.5,0c0.1-0.2,0-0.4,0-0.8
	c0.1-0.3,0.3-0.5,0.3-0.5l0-1.4C254.3,35,254.1,35.1,253.8,35.4z"/>
<path class="st0" d="M262.1,43.3c0-1,0.7-1.7,1.7-1.7c0.9,0,1.7,0.7,1.7,1.7c0,1-0.7,1.7-1.7,1.7C262.8,45,262.1,44.3,262.1,43.3z
	 M263.7,45.4c1.1,0,2.1-0.9,2.1-2c0-1.2-0.9-2-2.1-2c-1.1,0-2.1,0.9-2.1,2C261.7,44.5,262.6,45.4,263.7,45.4z M263.3,43.5h0.4l0.6,1
	h0.4l-0.7-1c0.3,0,0.6-0.2,0.6-0.6c0-0.5-0.3-0.7-0.8-0.7h-0.9v2.3h0.4V43.5z M263.3,43.2v-0.7h0.5c0.2,0,0.5,0.1,0.5,0.3
	c0,0.4-0.3,0.4-0.6,0.4H263.3z"/>
<path class="st0" d="M223.7,43.3c0-1,0.7-1.7,1.7-1.7c0.9,0,1.7,0.7,1.7,1.7c0,1-0.7,1.7-1.7,1.7C224.4,45,223.7,44.3,223.7,43.3z
	 M225.4,45.4c1.1,0,2.1-0.9,2.1-2c0-1.2-0.9-2-2.1-2c-1.1,0-2.1,0.9-2.1,2C223.3,44.5,224.2,45.4,225.4,45.4z M224.9,43.5h0.4l0.6,1
	h0.4l-0.7-1c0.3,0,0.6-0.2,0.6-0.6c0-0.5-0.3-0.7-0.8-0.7h-0.9v2.3h0.4V43.5z M224.9,43.2v-0.7h0.5c0.2,0,0.5,0.1,0.5,0.3
	c0,0.4-0.3,0.4-0.6,0.4H224.9z"/>
<path d="M176.6,43.4c0-1,0.7-1.7,1.7-1.7c0.9,0,1.7,0.7,1.7,1.7c0,1-0.7,1.7-1.7,1.7C177.3,45.1,176.6,44.3,176.6,43.4z M178.2,45.4
	c1.1,0,2.1-0.9,2.1-2c0-1.2-0.9-2-2.1-2c-1.1,0-2.1,0.9-2.1,2C176.2,44.5,177.1,45.4,178.2,45.4z M177.8,43.5h0.4l0.6,1h0.4l-0.7-1
	c0.3,0,0.6-0.2,0.6-0.6c0-0.5-0.3-0.7-0.8-0.7h-0.9v2.3h0.4V43.5z M177.8,43.2v-0.7h0.5c0.2,0,0.5,0.1,0.5,0.3
	c0,0.4-0.3,0.4-0.6,0.4H177.8z"/>
<path d="M183.9,39.4l-0.7,3.4h-1.3l0.7-3.4H183.9z"/>
</svg>
